<svg width="75" height="29" viewBox="0 0 75 29" fill="none" xmlns="http://www.w3.org/2000/svg">
<rect x="3.22217" y="16.1111" width="3.22222" height="3.22222" fill="#9183FF"/>
<rect x="25.7778" y="12.8889" width="3.22222" height="3.22222" transform="rotate(-180 25.7778 12.8889)" fill="#9183FF" fill-opacity="0.8"/>
<rect x="25.7778" y="16.1111" width="3.22222" height="3.22222" transform="rotate(-180 25.7778 16.1111)" fill="#9183FF"/>
<rect x="3.22217" y="19.3333" width="3.22222" height="3.22222" fill="#9183FF" fill-opacity="0.4"/>
<rect x="25.7778" y="9.66675" width="3.22222" height="3.22222" transform="rotate(-180 25.7778 9.66675)" fill="#9183FF"/>
<rect x="6.44434" y="16.1111" width="3.22222" height="3.22222" fill="#9183FF" fill-opacity="0.8"/>
<rect x="22.5557" y="12.8889" width="3.22222" height="3.22222" transform="rotate(-180 22.5557 12.8889)" fill="#9183FF" fill-opacity="0.9"/>
<rect x="22.5557" y="16.1111" width="3.22222" height="3.22222" transform="rotate(-180 22.5557 16.1111)" fill="#9183FF" fill-opacity="0.8"/>
<rect x="6.44434" y="19.3333" width="3.22222" height="3.22222" fill="#9183FF" fill-opacity="0.9"/>
<rect x="22.5557" y="9.66675" width="3.22222" height="3.22222" transform="rotate(-180 22.5557 9.66675)" fill="#9183FF" fill-opacity="0.7"/>
<rect x="6.44434" y="22.5557" width="3.22222" height="3.22222" fill="#9183FF"/>
<rect x="22.5557" y="6.44434" width="3.22222" height="3.22222" transform="rotate(-180 22.5557 6.44434)" fill="#9183FF"/>
<rect x="9.6665" y="16.1111" width="3.22222" height="3.22222" fill="#9183FF" fill-opacity="0.4"/>
<rect x="19.3335" y="12.8889" width="3.22222" height="3.22222" transform="rotate(-180 19.3335 12.8889)" fill="#9183FF"/>
<rect x="19.3335" y="16.1111" width="3.22222" height="3.22222" transform="rotate(-180 19.3335 16.1111)" fill="#9183FF"/>
<rect x="9.6665" y="19.3333" width="3.22222" height="3.22222" fill="#9183FF"/>
<rect x="19.3335" y="9.66675" width="3.22222" height="3.22222" transform="rotate(-180 19.3335 9.66675)" fill="#9183FF" fill-opacity="0.7"/>
<rect x="9.6665" y="22.5557" width="3.22222" height="3.22222" fill="#9183FF" fill-opacity="0.7"/>
<rect x="19.3335" y="6.44434" width="3.22222" height="3.22222" transform="rotate(-180 19.3335 6.44434)" fill="#9183FF"/>
<rect x="9.6665" y="25.7778" width="3.22222" height="3.22222" fill="#9183FF"/>
<rect x="19.3335" y="3.22217" width="3.22222" height="3.22222" transform="rotate(-180 19.3335 3.22217)" fill="#9183FF"/>
<rect x="12.8887" y="16.1111" width="3.22222" height="3.22222" fill="#9183FF"/>
<rect x="16.1113" y="12.8889" width="3.22222" height="3.22222" transform="rotate(-180 16.1113 12.8889)" fill="#9183FF" fill-opacity="0.7"/>
<rect x="16.1113" y="16.1111" width="3.22222" height="3.22222" transform="rotate(-180 16.1113 16.1111)" fill="#9183FF" fill-opacity="0.4"/>
<rect x="12.8887" y="19.3333" width="3.22222" height="3.22222" fill="#9183FF"/>
<rect x="16.1113" y="9.66675" width="3.22222" height="3.22222" transform="rotate(-180 16.1113 9.66675)" fill="#9183FF" fill-opacity="0.9"/>
<rect x="12.8887" y="22.5557" width="3.22222" height="3.22222" fill="#9183FF" fill-opacity="0.4"/>
<rect x="16.1113" y="6.44434" width="3.22222" height="3.22222" transform="rotate(-180 16.1113 6.44434)" fill="#9183FF" fill-opacity="0.4"/>
<rect x="12.8887" y="25.7778" width="3.22222" height="3.22222" fill="#9183FF" fill-opacity="0.4"/>
<rect x="16.1113" y="3.22217" width="3.22222" height="3.22222" transform="rotate(-180 16.1113 3.22217)" fill="#9183FF" fill-opacity="0.7"/>
<rect x="16.1113" y="16.1111" width="3.22222" height="3.22222" fill="#9183FF" fill-opacity="0.9"/>
<rect x="12.8887" y="12.8889" width="3.22222" height="3.22222" transform="rotate(-180 12.8887 12.8889)" fill="#9183FF"/>
<rect x="12.8887" y="16.1111" width="3.22222" height="3.22222" transform="rotate(-180 12.8887 16.1111)" fill="#9183FF"/>
<rect x="16.1113" y="19.3333" width="3.22222" height="3.22222" fill="#9183FF" fill-opacity="0.9"/>
<rect x="12.8887" y="9.66675" width="3.22222" height="3.22222" transform="rotate(-180 12.8887 9.66675)" fill="#9183FF" fill-opacity="0.7"/>
<rect x="16.1113" y="22.5557" width="3.22222" height="3.22222" fill="#9183FF"/>
<rect x="12.8887" y="6.44434" width="3.22222" height="3.22222" transform="rotate(-180 12.8887 6.44434)" fill="#9183FF"/>
<rect x="16.1113" y="25.7778" width="3.22222" height="3.22222" fill="#9183FF" fill-opacity="0.7"/>
<rect x="12.8887" y="3.22217" width="3.22222" height="3.22222" transform="rotate(-180 12.8887 3.22217)" fill="#9183FF"/>
<rect x="19.3335" y="16.1111" width="3.22222" height="3.22222" fill="#9183FF" fill-opacity="0.7"/>
<rect x="9.6665" y="12.8889" width="3.22222" height="3.22222" transform="rotate(-180 9.6665 12.8889)" fill="#9183FF" fill-opacity="0.9"/>
<rect x="9.6665" y="16.1111" width="3.22222" height="3.22222" transform="rotate(-180 9.6665 16.1111)" fill="#9183FF"/>
<rect x="19.3335" y="19.3333" width="3.22222" height="3.22222" fill="#9183FF"/>
<rect x="9.6665" y="9.66675" width="3.22222" height="3.22222" transform="rotate(-180 9.6665 9.66675)" fill="#9183FF"/>
<rect x="19.3335" y="22.5557" width="3.22222" height="3.22222" fill="#9183FF"/>
<rect x="9.6665" y="6.44434" width="3.22222" height="3.22222" transform="rotate(-180 9.6665 6.44434)" fill="#9183FF" fill-opacity="0.7"/>
<rect x="22.5557" y="16.1111" width="3.22222" height="3.22222" fill="#9183FF"/>
<rect x="6.44434" y="12.8889" width="3.22222" height="3.22222" transform="rotate(-180 6.44434 12.8889)" fill="#9183FF" fill-opacity="0.9"/>
<rect x="6.44434" y="16.1111" width="3.22222" height="3.22222" transform="rotate(-180 6.44434 16.1111)" fill="#9183FF" fill-opacity="0.7"/>
<rect x="22.5557" y="19.3333" width="3.22222" height="3.22222" fill="#9183FF" fill-opacity="0.7"/>
<rect x="6.44434" y="9.66675" width="3.22222" height="3.22222" transform="rotate(-180 6.44434 9.66675)" fill="#9183FF"/>
<rect x="25.7778" y="16.1111" width="3.22222" height="3.22222" fill="#9183FF"/>
<rect x="3.22217" y="12.8889" width="3.22222" height="3.22222" transform="rotate(-180 3.22217 12.8889)" fill="#9183FF" fill-opacity="0.4"/>
<rect x="3.22217" y="16.1111" width="3.22222" height="3.22222" transform="rotate(-180 3.22217 16.1111)" fill="#9183FF"/>
<rect y="16.1111" width="3.22222" height="3.22222" fill="#9183FF" fill-opacity="0.4"/>
<rect x="29" y="12.8889" width="3.22222" height="3.22222" transform="rotate(-180 29 12.8889)" fill="#9183FF"/>
<rect x="29" y="16.1111" width="3.22222" height="3.22222" transform="rotate(-180 29 16.1111)" fill="#9183FF" fill-opacity="0.4"/>
<circle cx="59.6113" cy="14.5" r="14.5" fill="#7969F7"/>
<path d="M37.0557 13.5333C36.5218 13.5333 36.089 13.9661 36.089 14.5C36.089 15.0339 36.5218 15.4667 37.0557 15.4667L37.0557 13.5333ZM63.517 15.1835C63.8945 14.806 63.8945 14.194 63.517 13.8165L57.3651 7.66463C56.9876 7.28713 56.3756 7.28713 55.9981 7.66463C55.6206 8.04214 55.6206 8.6542 55.9981 9.03171L61.4664 14.5L55.9981 19.9683C55.6206 20.3458 55.6206 20.9579 55.9981 21.3354C56.3756 21.7129 56.9876 21.7129 57.3652 21.3354L63.517 15.1835ZM37.0557 15.4667L62.8334 15.4667L62.8334 13.5333L37.0557 13.5333L37.0557 15.4667Z" fill="#9183FF"/>
<path d="M45.1113 13.5333C44.5775 13.5333 44.1447 13.9661 44.1447 14.5C44.1447 15.0339 44.5775 15.4667 45.1113 15.4667L45.1113 13.5333ZM63.5171 15.1835C63.8946 14.806 63.8946 14.194 63.5171 13.8165L57.3653 7.66463C56.9878 7.28713 56.3757 7.28713 55.9982 7.66463C55.6207 8.04214 55.6207 8.6542 55.9982 9.03171L61.4665 14.5L55.9982 19.9683C55.6207 20.3458 55.6207 20.9579 55.9982 21.3354C56.3757 21.7129 56.9877 21.7129 57.3653 21.3354L63.5171 15.1835ZM45.1113 15.4667L62.8335 15.4667L62.8335 13.5333L45.1113 13.5333L45.1113 15.4667Z" fill="white"/>
</svg>
