<svg width="59" height="59" viewBox="0 0 59 59" fill="none" xmlns="http://www.w3.org/2000/svg">
<path d="M35.1722 11.2392L43.1164 5.91565L42.4782 15.4573L42.4019 16.5981L43.5427 16.5218L53.0844 15.8836L47.7608 23.8278L47.1243 24.7776L48.1504 25.2819L56.7329 29.5L48.1504 33.7181L47.1243 34.2224L47.7608 35.1722L53.0844 43.1164L43.5427 42.4782L42.4019 42.4019L42.4782 43.5427L43.1164 53.0844L35.1722 47.7608L34.2224 47.1243L33.7181 48.1504L29.5 56.7329L25.2819 48.1504L24.7776 47.1243L23.8278 47.7608L15.8836 53.0844L16.5218 43.5427L16.5981 42.4019L15.4573 42.4782L5.91565 43.1164L11.2392 35.1722L11.8757 34.2224L10.8496 33.7181L2.26713 29.5L10.8496 25.2819L11.8757 24.7776L11.2392 23.8278L5.91565 15.8836L15.4573 16.5218L16.5981 16.5981L16.5218 15.4573L15.8836 5.91565L23.8278 11.2392L24.7776 11.8757L25.2819 10.8496L29.5 2.26713L33.7181 10.8496L34.2224 11.8757L35.1722 11.2392Z" stroke="#B4AEE2" stroke-width="2"/>
</svg>
